# Blender v3.1.2 OBJ File: 'rectangleinprocess.blend'
# www.blender.org
mtllib optimal_rectangle.mtl
o SM_Env_Path_4Way_01_43.001
v 3.750024 -0.000001 1.250000
v 3.750024 -0.000001 1.000000
v -3.749977 -0.000000 1.250000
v -3.749977 -0.000000 1.000000
v 3.750024 -0.000001 -1.250000
v 3.750024 -0.000001 -1.000000
v -3.749977 -0.000000 -1.250000
v -3.749977 -0.000000 -1.000000
v 3.750024 -0.000001 1.250000
v 3.000024 -0.000000 1.250004
v 3.750024 -0.000001 1.000000
v 3.088920 -0.000000 1.000000
v 3.750024 -0.000001 -1.000000
v 3.111558 -0.000000 -1.000000
v 3.750024 -0.000001 -1.250000
v 3.000024 -0.000000 -1.250000
v -3.749977 -0.000000 -1.250000
v -2.999977 -0.000000 -1.250000
v -3.125565 -0.000000 -1.000000
v -3.749977 -0.000000 1.000000
v -3.213158 -0.000000 1.000000
v -3.749977 -0.000000 1.250000
v -2.999977 -0.000000 1.250004
v 3.750024 1.713040 1.250004
v 3.750024 -0.000001 1.250000
v 3.750024 1.713040 -1.250000
v 3.750024 -0.000001 -1.250000
v -3.749977 1.713040 1.250004
v 3.750024 1.713040 1.250004
v -3.749977 1.713040 -1.250000
v 3.750024 1.713040 -1.250000
v -3.749977 -0.000000 1.250000
v -3.749977 1.713040 1.250004
v -3.749977 -0.000000 -1.250000
v -3.749977 1.713040 -1.250000
v -3.749977 -0.000000 -1.250000
v -3.749977 1.713040 -1.250000
v 3.750024 -0.000001 -1.250000
v 3.750024 1.713040 -1.250000
v 3.750024 -0.000001 1.250000
v 3.750024 1.713040 1.250004
v -3.749977 -0.000000 1.250000
v -3.749977 1.713040 1.250004
v 3.000024 -0.000000 1.250004
v 3.088920 -0.000000 1.000000
v 3.111558 -0.000000 -1.000000
v 3.000024 -0.000000 -1.250000
v -3.125565 -0.000000 -1.000000
v -3.213158 -0.000000 1.000000
v -2.999977 -0.000000 1.250004
vt 0.442433 0.326490
vt 0.442433 0.326490
vt 0.442433 0.326490
vt 0.442433 0.326490
vt 0.442433 0.326490
vt 0.442433 0.326490
vt 0.442433 0.326490
vt 0.442433 0.326490
vt 0.442433 0.326490
vt 0.442433 0.326490
vt 0.442433 0.326490
vt 0.442433 0.326490
vt 0.442433 0.326490
vt 0.442433 0.326490
vt 0.442433 0.326490
vt 0.442433 0.326490
vt 0.444866 0.326250
vt 0.444866 0.326250
vt 0.444866 0.326250
vt 0.444866 0.326250
vn 1.0000 -0.0000 0.0000
vn 0.0000 1.0000 0.0000
vn -1.0000 0.0000 0.0000
vn -0.0000 0.0000 -1.0000
vn 0.0000 -0.0000 1.0000
usemtl PolygonSamurai_Mat_01.001
s 1
f 24/1/1 25/2/1 26/3/1
f 26/3/1 25/2/1 27/4/1
f 28/5/2 29/6/2 30/7/2
f 30/7/2 29/6/2 31/8/2
f 32/9/3 33/10/3 34/11/3
f 34/11/3 33/10/3 35/12/3
f 36/13/4 37/14/4 38/15/4
f 38/15/4 37/14/4 39/16/4
f 40/17/5 41/18/5 42/19/5
f 42/19/5 41/18/5 43/20/5
l 3 4
l 7 8
l 11 12
l 13 14
l 20 21
l 1 2
l 15 16
l 22 23
l 5 6
l 9 10
l 17 18
l 49 50
l 44 45
l 46 47
