# Blender v3.1.2 OBJ File: ''
# www.blender.org
mtllib tile.mtl
o SM_Env_Path_4Way_01_43
v -2.500000 -0.000000 2.500008
v -2.250000 -0.000000 2.500008
v -2.500000 -0.000000 0.000008
v -2.250000 -0.000000 0.000008
v 0.000000 -0.000000 2.500008
v -0.250000 -0.000000 2.500008
v 0.000000 -0.000000 0.000008
v -0.250000 -0.000000 0.000008
v -2.500000 -0.000000 2.500008
v -2.500004 -0.000000 2.250008
v -2.250000 -0.000000 2.500008
v -2.250000 -0.000000 2.279640
v -0.250000 -0.000000 2.500008
v -0.250000 -0.000000 2.287186
v 0.000000 -0.000000 2.500008
v 0.000000 -0.000000 2.250008
v 0.000000 -0.000000 0.000008
v 0.000000 -0.000000 0.250008
v -0.250000 -0.000000 0.000008
v -0.250000 -0.000000 0.208145
v -2.250000 -0.000000 0.000008
v -2.250000 -0.000000 0.178947
v -2.500000 -0.000000 0.000008
v -2.500004 -0.000000 0.250008
v -2.500004 0.068521 2.500008
v -2.500000 -0.000000 2.500008
v 0.000000 0.068521 2.500008
v 0.000000 -0.000000 2.500008
v -2.500004 0.068522 0.000008
v -2.500004 0.068521 2.500008
v 0.000000 0.068522 0.000008
v 0.000000 0.068521 2.500008
v -2.500000 -0.000000 0.000008
v -2.500004 0.068522 0.000008
v 0.000000 -0.000000 0.000008
v 0.000000 0.068522 0.000008
v 0.000000 -0.000000 0.000008
v 0.000000 0.068522 0.000008
v 0.000000 -0.000000 2.500008
v 0.000000 0.068521 2.500008
v -2.500000 -0.000000 2.500008
v -2.500004 0.068521 2.500008
v -2.500000 -0.000000 0.000008
v -2.500004 0.068522 0.000008
v -2.500004 -0.000000 2.250008
v -2.250000 -0.000000 2.279640
v -0.250000 -0.000000 2.287186
v 0.000000 -0.000000 2.250008
v 0.000000 -0.000000 0.250008
v -0.250000 -0.000000 0.208145
v -2.250000 -0.000000 0.178947
v -2.500004 -0.000000 0.250008
vt 0.442433 0.326490
vt 0.442433 0.326490
vt 0.442433 0.326490
vt 0.442433 0.326490
vt 0.442433 0.326490
vt 0.442433 0.326490
vt 0.442433 0.326490
vt 0.442433 0.326490
vt 0.442433 0.326490
vt 0.442433 0.326490
vt 0.442433 0.326490
vt 0.442433 0.326490
vt 0.442433 0.326490
vt 0.442433 0.326490
vt 0.442433 0.326490
vt 0.442433 0.326490
vt 0.444866 0.326250
vt 0.444866 0.326250
vt 0.444866 0.326250
vt 0.444866 0.326250
vn 0.0000 0.0000 1.0000
vn 0.0000 1.0000 0.0000
vn 0.0000 0.0000 -1.0000
vn 1.0000 0.0000 0.0000
vn -1.0000 -0.0001 -0.0000
usemtl PolygonSamurai_Mat_01
s 1
f 25/1/1 26/2/1 27/3/1
f 27/3/1 26/2/1 28/4/1
f 29/5/2 30/6/2 31/7/2
f 31/7/2 30/6/2 32/8/2
f 33/9/3 34/10/3 35/11/3
f 35/11/3 34/10/3 36/12/3
f 37/13/4 38/14/4 39/15/4
f 39/15/4 38/14/4 40/16/4
f 41/17/5 42/18/5 43/19/5
f 43/19/5 42/18/5 44/20/5
l 3 4
l 7 8
l 11 12
l 13 14
l 19 20
l 21 22
l 1 2
l 15 16
l 23 24
l 5 6
l 9 10
l 17 18
l 51 52
l 49 50
l 45 46
l 47 48
